<?xml version="1.0" encoding="utf-8"?>
<!-- Generator: Adobe Illustrator 23.0.3, SVG Export Plug-In . SVG Version: 6.00 Build 0)  -->
<svg version="1.1" id="Layer_1" xmlns="http://www.w3.org/2000/svg" xmlns:xlink="http://www.w3.org/1999/xlink" x="0px" y="0px"
	 width="104.6px" height="40px" viewBox="0 0 104.6 40" style="enable-background:new 0 0 104.6 40;" xml:space="preserve">
<style type="text/css">
	.st0{fill:#777777;}
</style>
<g id="Group_143" transform="translate(-664 -1112.892)">
	<path id="Path_149" class="st0" d="M671.9,1147H670v5.8h-1.2v-5.8h-2v-1h5.4L671.9,1147z"/>
	<path id="Path_150" class="st0" d="M676,1152.8v-2.8c0-0.6-0.1-1-0.7-1c-0.4,0-0.9,0.2-1.2,0.5v3.4h-1.2v-7.3h1.2v3
		c0.4-0.4,1-0.6,1.6-0.7c0.7,0,1.6,0.4,1.6,1.8v3.2H676z"/>
	<path id="Path_151" class="st0" d="M679.3,1150.7c0,0.7,0.7,1.3,1.4,1.2l0,0c0.4,0,0.9-0.1,1.3-0.3l0.3,0.8
		c-0.5,0.3-1.1,0.5-1.7,0.5c-1.3,0-2.4-1-2.4-2.3c0-0.1,0-0.2,0-0.3c-0.1-1.3,0.8-2.4,2-2.5c0,0,0.1,0,0.2,0c1.2,0,2.2,1,2.2,2.3
		c0,0.1,0,0.2,0,0.3v0.4H679.3z M680.3,1148.7c-0.6,0-1,0.5-1,1c0,0,0,0,0,0h1.9C681.1,1149.3,680.9,1148.7,680.3,1148.7"/>
	<path id="Path_152" class="st0" d="M691.4,1147h-1.8v5.8h-1.3v-5.8h-2v-1h5.4L691.4,1147z"/>
	<path id="Path_153" class="st0" d="M694.4,1149.1c-0.2-0.1-0.3-0.1-0.6-0.1c-0.3,0-0.7,0.2-1,0.4v3.4h-1.2v-4.9h1l0.1,0.5
		c0.3-0.4,0.8-0.6,1.3-0.7c0.3,0,0.5,0.1,0.7,0.2L694.4,1149.1z"/>
	<path id="Path_154" class="st0" d="M698.4,1152.8l-0.2-0.4c-0.4,0.3-0.9,0.6-1.4,0.5c-0.8,0-1.6-0.6-1.6-1.4c0,0,0-0.1,0-0.1
		c0-1,0.8-1.6,2-1.6l0.9,0v-0.1c0-0.6-0.4-0.8-1-0.8c-0.4,0-0.9,0.1-1.2,0.4l-0.4-0.8c0.6-0.4,1.2-0.6,1.9-0.5c1.2,0,2,0.5,2,1.7
		v1.9c0,0.4,0,0.9,0.1,1.3h-1L698.4,1152.8z M698.1,1150.6l-0.7,0c-0.7,0-1,0.3-1,0.7c0,0.4,0.3,0.7,0.8,0.7c0.3,0,0.6-0.1,0.9-0.3
		V1150.6L698.1,1150.6z"/>
	<path id="Path_155" class="st0" d="M703,1152.8h-0.9l-2-4.9h1.2l1.2,3.4h0l1.2-3.4h1.2L703,1152.8z"/>
	<path id="Path_156" class="st0" d="M706.5,1150.7c0,0.7,0.7,1.3,1.4,1.2l0,0c0.4,0,0.9-0.1,1.3-0.3l0.3,0.8
		c-0.5,0.3-1.1,0.5-1.7,0.5c-1.3,0-2.4-1-2.4-2.3c0-0.1,0-0.2,0-0.3c-0.1-1.3,0.8-2.4,2-2.5c0,0,0.1,0,0.2,0c1.2,0,2.2,1,2.2,2.3
		c0,0.1,0,0.2,0,0.3v0.4H706.5z M707.4,1148.7c-0.6,0-1,0.5-1,1c0,0,0,0,0,0h1.9C708.3,1149.3,708,1148.7,707.4,1148.7"/>
	<path id="Path_157" class="st0" d="M711.7,1152.9c-0.5,0.1-1-0.3-1.1-0.8c0-0.1,0-0.2,0-0.3v-6.3h1.2v5.8c0,0.4,0.1,0.5,0.3,0.5
		c0.1,0,0.3,0,0.4,0l0.1,0.9C712.4,1152.8,712.1,1152.9,711.7,1152.9"/>
	<path id="Path_158" class="st0" d="M721.7,1152.8l-0.7-1.7h-2.4l-0.7,1.7h-1.3l2.6-6.8h0.9l2.7,6.8H721.7z M720,1148.5
		c-0.1-0.3-0.2-0.6-0.3-0.9l0,0c-0.1,0.3-0.2,0.6-0.3,0.8l-0.6,1.6h1.7L720,1148.5z"/>
	<path id="Path_159" class="st0" d="M725.3,1152.9c-0.6,0-1.3-0.1-1.8-0.4l0.4-0.9c0.4,0.3,0.8,0.4,1.3,0.4s0.8-0.2,0.8-0.5
		c0-0.9-2.3-0.6-2.3-2.2c0-0.9,0.7-1.5,1.8-1.5c0.5,0,1,0.1,1.4,0.3v1c-0.4-0.2-0.9-0.3-1.4-0.3c-0.4,0-0.7,0.1-0.7,0.4
		c0,0.8,2.3,0.5,2.3,2.2C727.3,1152.4,726.4,1152.9,725.3,1152.9"/>
	<path id="Path_160" class="st0" d="M729.8,1152.9c-0.6,0-1.3-0.1-1.8-0.4l0.4-0.9c0.4,0.3,0.8,0.4,1.3,0.4s0.8-0.2,0.8-0.5
		c0-0.9-2.3-0.6-2.3-2.2c0-0.9,0.7-1.5,1.8-1.5c0.5,0,1,0.1,1.4,0.3v1c-0.4-0.2-0.9-0.3-1.4-0.3c-0.4,0-0.7,0.1-0.7,0.4
		c0,0.8,2.3,0.5,2.3,2.2C731.8,1152.4,730.9,1152.9,729.8,1152.9"/>
	<path id="Path_161" class="st0" d="M740.7,1152.9c-1.3,0-2.3-1-2.4-2.3c0-0.1,0-0.2,0-0.3c0-1.3,1-2.5,2.4-2.6c0,0,0.1,0,0.1,0
		c0.5,0,1,0.1,1.4,0.3l0,1c-0.3-0.3-0.8-0.4-1.2-0.4c-0.8,0-1.4,0.7-1.4,1.5c0,0,0,0,0,0.1c-0.1,0.8,0.5,1.5,1.3,1.6
		c0,0,0.1,0,0.2,0c0.4,0,0.8-0.1,1.2-0.3l0.3,0.8C741.8,1152.7,741.3,1152.9,740.7,1152.9"/>
	<path id="Path_162" class="st0" d="M744.1,1147.1c-0.4,0-0.7-0.3-0.7-0.8c0-0.4,0.3-0.7,0.7-0.7c0.4,0,0.8,0.3,0.8,0.7
		S744.5,1147.1,744.1,1147.1C744.1,1147.1,744.1,1147.1,744.1,1147.1 M743.5,1147.9h1.2v4.9h-1.2V1147.9z"/>
	<path id="Path_163" class="st0" d="M749,1152.8l-0.2-0.4c-0.4,0.3-0.9,0.6-1.4,0.5c-0.8,0-1.6-0.6-1.6-1.4c0,0,0-0.1,0-0.1
		c0-1,0.8-1.6,2-1.6l0.9,0v-0.1c0-0.6-0.4-0.8-1-0.8c-0.4,0-0.9,0.1-1.2,0.4l-0.4-0.8c0.6-0.4,1.2-0.6,1.9-0.5c1.2,0,2,0.5,2,1.7
		v1.9c0,0.4,0,0.9,0.1,1.3L749,1152.8L749,1152.8z M748.7,1150.6l-0.7,0c-0.7,0-1,0.3-1,0.7c0,0.4,0.3,0.7,0.8,0.7
		c0.3,0,0.6-0.1,0.9-0.3V1150.6L748.7,1150.6z"/>
	<path id="Path_164" class="st0" d="M752.9,1152.9c-1,0-1.3-0.5-1.3-1.2v-2.9h-0.9v-1h0.9v-1.1l1.2-0.4v1.5h1.5l-0.4,1h-1.2v2.5
		c0,0.4,0.1,0.6,0.4,0.6c0.3,0,0.6-0.1,0.8-0.2l0.3,0.8C754,1152.7,753.5,1152.9,752.9,1152.9"/>
	<path id="Path_165" class="st0" d="M756.2,1147.1c-0.4,0-0.7-0.3-0.7-0.8c0-0.4,0.3-0.7,0.7-0.7c0.4,0,0.8,0.3,0.8,0.7l0,0
		C757,1146.8,756.6,1147.1,756.2,1147.1 M755.6,1147.9h1.2v4.9h-1.2V1147.9z"/>
	<path id="Path_166" class="st0" d="M762,1152.2c-0.5,0.5-1.1,0.7-1.7,0.7c-0.6,0-1.2-0.2-1.7-0.6c-0.5-0.5-0.8-1.2-0.7-1.9
		c0-0.7,0.2-1.3,0.7-1.9c0.5-0.4,1.1-0.7,1.7-0.7c0.7,0,1.3,0.2,1.8,0.7c0.4,0.5,0.7,1.2,0.7,1.8
		C762.7,1151.1,762.5,1151.7,762,1152.2 M760.2,1148.8c-0.8,0-1.2,0.7-1.2,1.6c0,1,0.4,1.6,1.2,1.6c0.8,0,1.2-0.7,1.2-1.6
		C761.5,1149.4,761,1148.8,760.2,1148.8"/>
	<path id="Path_167" class="st0" d="M736.8,1152.2c-0.5,0.5-1.1,0.7-1.7,0.7c-0.6,0-1.2-0.2-1.7-0.6c-0.5-0.5-0.8-1.2-0.7-1.9
		c0-0.7,0.2-1.3,0.7-1.9c0.5-0.4,1.1-0.7,1.7-0.7c0.7,0,1.3,0.2,1.8,0.7c0.4,0.5,0.7,1.2,0.7,1.8
		C737.5,1151.1,737.3,1151.7,736.8,1152.2 M735.1,1148.8c-0.8,0-1.2,0.7-1.2,1.6c0,1,0.4,1.6,1.2,1.6s1.2-0.7,1.2-1.6
		C736.2,1149.4,735.8,1148.8,735.1,1148.8"/>
	<path id="Path_168" class="st0" d="M766.7,1152.8v-2.8c0-0.5-0.1-1-0.7-1c-0.5,0-0.9,0.2-1.2,0.5v3.4h-1.2v-4.9h1l0.1,0.5
		c0.5-0.4,1.1-0.6,1.7-0.7c0.7,0,1.5,0.4,1.5,1.7v3.2H766.7L766.7,1152.8z"/>
	<path id="Path_169" class="st0" d="M678.3,1112.9c-0.4,0-0.9,0-1.3,0.1v2.3l0,0v25.2l0,0v0.9c0.4,0,0.9,0.1,1.3,0.1
		c7.9-0.1,14.1-6.6,14-14.5C692.2,1119.2,686,1113,678.3,1112.9 M683.5,1128.4c-0.1,0.9-0.2,1.8-0.3,2.7h-3.3v-2.7H683.5z
		 M679.8,1125.8v-2.7h3.3c0.2,0.9,0.3,1.8,0.4,2.7H679.8z M686.3,1128.4h3.4c-0.1,0.9-0.3,1.8-0.7,2.7h-3.1
		C686.1,1130.2,686.2,1129.3,686.3,1128.4 M686.3,1125.8c-0.1-0.9-0.2-1.8-0.4-2.7h3.1c0.3,0.9,0.5,1.7,0.7,2.7H686.3z
		 M687.5,1120.5h-2.4c-0.5-1.3-1.1-2.4-1.8-3.6C685,1117.7,686.5,1118.9,687.5,1120.5 M682.4,1120.5h-2.5v-4.7
		C680.9,1117.2,681.8,1118.8,682.4,1120.5 M679.8,1138.4v-4.7h2.6C681.8,1135.4,680.9,1137,679.8,1138.4z M683.4,1137.3
		c0.7-1.1,1.3-2.3,1.8-3.6h2.4C686.5,1135.3,685.1,1136.5,683.4,1137.3"/>
	<path id="Path_170" class="st0" d="M724.1,1139.7h-7.4v-23.5h7.4c4.7,0,6.9,3.3,6.9,6.1c0.1,2-1,4-2.8,4.9v0.1
		c2.6,0.4,4.5,2.7,4.4,5.4C732.5,1135.9,730.1,1139.7,724.1,1139.7 M723.4,1119.7H721v6.1h2.3c1.7,0.1,3.2-1.1,3.4-2.9
		c0-0.1,0-0.2,0-0.3C726.6,1121,725.5,1119.7,723.4,1119.7 M724.2,1129.5H721v6.5h2.7c2.9,0,4.3-1.3,4.3-3.4
		C728.1,1130.7,726.7,1129.5,724.2,1129.5"/>
	<path id="Path_171" class="st0" d="M749.8,1119.7h-6.3v19.9h-4.4v-19.9h-6.9v-3.6h18.9L749.8,1119.7z"/>
	<path id="Path_172" class="st0" d="M710.1,1139.7l-2.3-5.9h-8.4l-2.2,5.9h-4.3l9.1-23.5h3.2l9.4,23.5H710.1z M704.5,1124.8
		c-0.3-1-0.7-1.9-0.9-2.9h0c-0.2,1-0.5,1.9-0.9,2.8l-2,5.5h5.7L704.5,1124.8z"/>
	<path id="Path_173" class="st0" d="M764,1139.7l-2.3-5.9h-8.4l-2.2,5.9h-4.4l9.1-23.5h3.3l9.4,23.5H764z M758.5,1124.8
		c-0.3-1-0.7-1.9-0.9-2.9h0c-0.2,1-0.5,1.9-0.9,2.8l-2,5.5h5.7L758.5,1124.8z"/>
	<path id="Path_174" class="st0" d="M675.6,1124.4v-1.1l-6.8-6.8c-0.4,0.3-0.7,0.7-1.1,1.1l6.8,6.8H675.6z"/>
	<path id="Path_175" class="st0" d="M675.6,1129.7v1.1l-6.8,6.8c-0.4-0.3-0.7-0.7-1.1-1.1l6.8-6.8H675.6z"/>
	<path id="Path_176" class="st0" d="M675.6,1125.8h-11.5c0,0.4-0.1,0.9-0.1,1.3c0,0.4,0,0.9,0.1,1.3h11.5V1125.8z"/>
	<path id="Path_177" class="st0" d="M667,1118.5c-1.3,1.7-2.2,3.8-2.6,5.9h8.5L667,1118.5z"/>
	<path id="Path_178" class="st0" d="M675.6,1121.7v-8.5c-2.1,0.4-4.2,1.3-5.9,2.6L675.6,1121.7z"/>
	<path id="Path_179" class="st0" d="M669.7,1138.4c1.7,1.3,3.8,2.2,5.9,2.6v-8.5L669.7,1138.4z"/>
	<path id="Path_180" class="st0" d="M672.9,1129.7h-8.5c0.4,2.1,1.3,4.2,2.6,5.9L672.9,1129.7z"/>
</g>
</svg>
