<?xml version="1.0" encoding="utf-8"?>
<!-- Generator: Adobe Illustrator 23.0.3, SVG Export Plug-In . SVG Version: 6.00 Build 0)  -->
<svg version="1.1" id="Layer_1" xmlns="http://www.w3.org/2000/svg" xmlns:xlink="http://www.w3.org/1999/xlink" x="0px" y="0px"
	 width="70px" height="70.1px" viewBox="0 0 70 70.1" style="enable-background:new 0 0 70 70.1;" xml:space="preserve">
<style type="text/css">
	.st0{fill:#777777;}
	.st1{fill:none;}
</style>
<g id="Group_144" transform="translate(-827.763 -1091.734)">
	<path id="Path_199" class="st0" d="M876.4,1131.7c-5.2-0.4-9.7-3.4-12-8.1c-5.5-11,6-16.9,6-16.9l10.2,1.8L876.4,1131.7"/>
	<path id="Path_200" class="st0" d="M897.2,1132.9L897.2,1132.9 M857.1,1159.1c-17.8-3.1-29.8-20.1-26.6-37.9
		c3.1-17.8,20.1-29.8,37.9-26.6c17.8,3.1,29.8,20.1,26.6,37.9l0,0C891.8,1150.4,874.9,1162.2,857.1,1159.1z M828.3,1120.7
		c-3.4,19.1,9.3,37.2,28.4,40.5c19.1,3.4,37.2-9.3,40.5-28.4c0.4-2,0.5-4,0.5-6.1c0-19.4-15.6-35-35-35
		C845.7,1091.7,831.2,1104,828.3,1120.7z"/>
	<path id="Path_201" class="st0" d="M836.5,1133.4c0.1,0.2,0.1,0.4,0.2,0.7c0.4,0.5,1,0.7,1.6,0.5c0.8-0.2,1.3-0.8,1.1-1.3l-0.1-0.6
		L836.5,1133.4 M832.7,1134.4c0-0.3-0.1-0.5-0.1-0.8c-0.1-0.2-0.1-0.5-0.2-0.7l7.1-1.9l0.7,2.5c0.4,1.4,0,2.4-1.1,2.7
		c-1.9,0.5-2.6-0.7-3.1-2.6L832.7,1134.4z"/>
	<path id="Path_202" class="st0" d="M839,1139.7c0.2,0.7,0.9,1.1,1.6,1c0.2-0.1,0.4-0.1,0.5-0.3c0.1-0.1,0.3-0.2,0.4-0.3
		c0.7-0.6,0.1-1.3-0.1-1.8L839,1139.7 M841.2,1136.6l1.1,2c0.4,0.5,0.6,1,0.7,1.6c0.1,0.7-0.3,1.3-0.8,1.6c-0.8,0.5-1.9,0.3-2.5-0.4
		c-0.6,1-1.1,2.1-1.6,3.1l-0.4,0.7l-0.4-0.9c-0.1-0.3-0.4-0.5-0.5-0.8l1.3-2.2c0.1-0.3,0.4-0.8,0.7-1.2v-0.1l-3,1.7
		c-0.1-0.2-0.2-0.5-0.4-0.7l-0.4-0.7L841.2,1136.6z"/>
	<path id="Path_203" class="st0" d="M842.9,1146c-0.9,1-1.4,2.5-0.2,3.7c1.3,1.1,2.8,0.3,4-1c0.9-1,1.5-2.6,0.2-3.7
		C845.9,1144,844.5,1144.2,842.9,1146 M842.2,1150.2c-1.6-1.2-2-3.5-0.8-5.2c0.1-0.1,0.2-0.3,0.3-0.4c1.4-1.6,3.7-1.9,5.8-0.1
		c1.6,1.2,2,3.4,0.8,5.1c-0.1,0.1-0.2,0.3-0.4,0.4c-1.4,1.6-3.9,1.8-5.5,0.4C842.4,1150.3,842.3,1150.3,842.2,1150.2L842.2,1150.2z"
		/>
	<path id="Path_204" class="st0" d="M851.3,1155.6c-0.2-0.1-0.4-0.2-0.7-0.4c-0.2-0.1-0.5-0.2-0.7-0.2l2.6-6.1
		c-0.6-0.2-1.3-0.4-1.9-0.7c0.1-0.1,0.1-0.3,0.2-0.4c0.1-0.1,0.1-0.3,0.1-0.4l5.1,2.2c-0.1,0.1-0.1,0.3-0.2,0.4
		c-0.1,0.1-0.1,0.3-0.1,0.4c-0.5-0.3-1.1-0.6-1.7-0.9L851.3,1155.6"/>
	<path id="Path_205" class="st0" d="M861.1,1150.5c-0.1,0.1-0.1,0.3-0.1,0.4c0,0.1-0.1,0.3,0,0.4c-0.8-0.2-1.6-0.4-2.5-0.5l-0.4,2.3
		l1.1,0.1c0.4,0.1,0.9,0.1,1.3,0.1c0,0.1-0.1,0.3-0.1,0.4c0,0.1-0.1,0.3,0,0.4c-0.4-0.1-0.8-0.2-1.3-0.3l-1.1-0.1l-0.4,2.7
		c0.8,0.1,1.6,0.2,2.5,0.2c0,0.1-0.1,0.3-0.1,0.4c0,0.1-0.1,0.3,0,0.4l-4-0.7l1.2-7.3L861.1,1150.5"/>
	<path id="Path_206" class="st0" d="M868.8,1156.1l-0.1,1c-0.6,0.4-1.3,0.6-2.1,0.7c-2.3,0.2-4.2-1-4.4-3.2
		c-0.2-2.8,1.6-4.3,3.9-4.5c0.7-0.1,1.6,0.1,2.2,0.3c-0.1,0.4-0.1,0.7-0.1,1.1h-0.1c-0.4-0.6-1.1-0.9-1.9-0.8
		c-1.8,0.1-2.3,1.9-2.2,3.5c0.1,1.9,1.2,3,2.8,2.8c0.7-0.1,1.3-0.4,1.9-1L868.8,1156.1"/>
	<path id="Path_207" class="st0" d="M874.8,1155.4c-0.3,0.1-0.5,0.1-0.7,0.2c-0.2,0.1-0.4,0.2-0.7,0.3l-2.4-6.1
		c-0.6,0.2-1.2,0.5-1.8,0.9l-0.1-0.4c-0.1-0.1-0.1-0.3-0.2-0.4l5.2-2l0.1,0.4c0.1,0.1,0.1,0.3,0.2,0.4c-0.6,0.1-1.3,0.3-1.9,0.5
		L874.8,1155.4"/>
	<path id="Path_208" class="st0" d="M878.2,1144.8c0.1,0.1,0.1,0.3,0.2,0.4c0.1,0.1,0.2,0.2,0.3,0.3c-0.7,0.4-1.4,0.8-2.1,1.3
		l1.3,1.9l0.9-0.7c0.4-0.2,0.7-0.5,1-0.8c0.1,0.1,0.1,0.3,0.2,0.4c0.1,0.1,0.2,0.2,0.3,0.3c-0.4,0.2-0.7,0.4-1.1,0.7l-0.9,0.7
		l1.6,2.2c0.7-0.4,1.3-1,1.9-1.6c0.1,0.1,0.1,0.3,0.2,0.4c0.1,0.1,0.2,0.2,0.3,0.3l-3.4,2.4l-4.2-6L878.2,1144.8"/>
	<path id="Path_209" class="st0" d="M885.5,1146.9l0.5-0.7c0.9-1.2,1-2.5-0.9-4c-1.6-1.3-2.8-1-3.7,0.1l-0.7,0.8L885.5,1146.9
		 M881.5,1141.1c1-1.4,3-1.7,4.4-0.7c0.1,0.1,0.2,0.1,0.3,0.3c1.6,1.2,2.1,3.4,0.9,5.1c-0.1,0.1-0.1,0.2-0.3,0.3l-1.9,2.4l-5.8-4.6
		L881.5,1141.1z"/>
	<path id="Path_210" class="st0" d="M865.2,1135.2c-0.4-0.1-1-0.1-1.4,0.1c-0.4,0.1-0.6,0.4-0.7,0.8c-0.1,0.4,0.1,0.7,0.3,1
		c0.4,0.3,0.8,0.4,1.3,0.5s1,0.1,1.4-0.1c0.4-0.1,0.6-0.4,0.7-0.8c0.1-0.4-0.1-0.7-0.3-1C866.1,1135.4,865.7,1135.2,865.2,1135.2z"
		/>
	<path id="Path_211" class="st0" d="M851.3,1134.4l1.7,0.3l-0.6-1.5L851.3,1134.4z"/>
	<path id="Path_212" class="st1" d="M867.5,1135.3c-0.7-0.4-1.3-0.7-2.2-0.8c-0.7-0.2-1.6-0.2-2.3,0c-0.8,0.1-1.4,0.8-1.3,1.6
		c0.1,0.5,0.4,0.9,0.8,1.1c0.7,0.4,1.3,0.7,2.2,0.8c0.7,0.2,1.6,0.2,2.3,0c0.6-0.1,1.1-0.6,1.3-1.2
		C868.4,1136.3,868.1,1135.6,867.5,1135.3z"/>
	<path id="Path_213" class="st1" d="M855.9,1134l2.1,0.4l-0.5,2.8l1.4,0.2l0.4-2.8l2,0.4l0.1-0.6l-5.5-1L855.9,1134z"/>
	<path id="Path_214" class="st0" d="M860.2,1127.5c-6.7-7-6.8-15.3-2.5-23l-5.6-1l-6.2,35.4l28.4,5l1.9-10.5
		C870.2,1133.8,864.3,1131.7,860.2,1127.5z M853.6,1136.1l-0.3-0.7l-2.5-0.4l-0.6,0.6l-1.5-0.2l3-3l1.6,0.3l1.8,3.8L853.6,1136.1z
		 M861.4,1134.6l-2-0.4l-0.5,2.8l-1.4-0.2l0.5-2.8l-2-0.4l0.1-0.6l5.5,1L861.4,1134.6z M868.3,1136.9c-0.1,0.7-0.7,1.1-1.3,1.2
		c-0.7,0.2-1.6,0.2-2.3,0c-0.7-0.1-1.5-0.4-2.2-0.8c-0.6-0.3-0.9-1-0.7-1.6c0.1-0.7,0.7-1.1,1.3-1.2c0.7-0.2,1.6-0.2,2.3,0
		c0.7,0.1,1.5,0.4,2.2,0.8C868.1,1135.6,868.4,1136.3,868.3,1136.9L868.3,1136.9z M873.8,1139.7l-4.8-0.8l0.6-3.4l1.4,0.2l-0.5,2.8
		l3.4,0.6L873.8,1139.7z"/>
	<path id="Path_215" class="st1" d="M871.1,1135.6l-1.4-0.2l-0.6,3.4l4.8,0.8l0.1-0.6l-3.4-0.6L871.1,1135.6z"/>
</g>
</svg>
